<?xml version="1.0" encoding="UTF-8" standalone="no"?>
<svg
   xmlns:dc="http://purl.org/dc/elements/1.1/"
   xmlns:cc="http://creativecommons.org/ns#"
   xmlns:rdf="http://www.w3.org/1999/02/22-rdf-syntax-ns#"
   xmlns:svg="http://www.w3.org/2000/svg"
   xmlns="http://www.w3.org/2000/svg"
   xmlns:sodipodi="http://sodipodi.sourceforge.net/DTD/sodipodi-0.dtd"
   xmlns:inkscape="http://www.inkscape.org/namespaces/inkscape"
   viewBox="0 0 180 35"
   version="1.1"
   id="svg4374"
   sodipodi:docname="azbouki-logo-dark.svg"
   inkscape:version="1.0.2 (e86c870879, 2021-01-15, custom)"
   width="180"
   height="35">
  <sodipodi:namedview
     pagecolor="#ffffff"
     bordercolor="#666666"
     borderopacity="1"
     objecttolerance="10"
     gridtolerance="10"
     guidetolerance="10"
     inkscape:pageopacity="0"
     inkscape:pageshadow="2"
     inkscape:window-width="1920"
     inkscape:window-height="1017"
     id="namedview24"
     showgrid="false"
     inkscape:zoom="1.7469907"
     inkscape:cx="179.18864"
     inkscape:cy="67"
     inkscape:window-x="-8"
     inkscape:window-y="-8"
     inkscape:window-maximized="1"
     inkscape:current-layer="svg4374"
     inkscape:document-rotation="0"
     inkscape:snap-nodes="true"
     inkscape:snap-grids="false"
     inkscape:snap-page="false"
     inkscape:snap-global="true"
     showguides="true" />
  <metadata
     id="metadata4378">
    <rdf:RDF>
      <cc:Work
         rdf:about="">
        <dc:format>image/svg+xml</dc:format>
        <dc:type
           rdf:resource="http://purl.org/dc/dcmitype/StillImage" />
        <dc:title>Azbouki Logo - Dark</dc:title>
      </cc:Work>
    </rdf:RDF>
  </metadata>
  <defs
     id="defs4321">
    <style
       id="style4319">
      .cls-1 {
        fill: #cf2f4c;
      }

      .cls-2 {
        fill: #e797a5;
      }

      .cls-3 {
        fill: #3c4b64;
      }
    </style>
  </defs>
  <title
     id="title4323">Azbouki Logo - Dark</title>
  <path
     id="text851"
     style="font-size:163.692px;line-height:0;font-family:Daniel;-inkscape-font-specification:Daniel;letter-spacing:0px;word-spacing:0px;fill:#4d4d4d;fill-opacity:1;stroke:#4d4d4d;stroke-width:1.12181px;stroke-linecap:butt;stroke-linejoin:miter;stroke-opacity:1"
     d="M 67.889878,1.7387791 60.311136,2.3560616 56.573233,25.214462 c -0.783703,1.14718 -1.728285,2.011806 -2.835837,2.590166 -1.095677,0.588059 -2.267785,0.881982 -3.515646,0.881982 -0.517403,0 -1.354073,-0.08828 -2.51063,-0.264699 -1.400041,-0.235228 -2.496078,-0.353109 -3.28741,-0.353109 -0.517404,0 -1.110569,0.07348 -1.780154,0.220496 l 9.450419,-10.629049 -0.319759,-4.013652 c -4.291429,0.0588 -7.928669,-0.220315 -10.911367,-0.837778 -2.952258,-0.646868 -5.615488,-1.60264 -7.989469,-2.8669704 l -0.638961,5.0724524 1.141197,0.528874 2.967659,1.235091 c 1.217427,0.411643 2.419626,0.720366 3.606618,0.926187 1.217424,0.205821 2.602393,0.323705 4.154613,0.353109 l -9.313698,10.981631 0.502236,4.807753 c 1.491347,-0.529255 3.059081,-0.794103 4.702604,-0.794103 0.943509,0 1.841461,0.05868 2.693661,0.176291 0.852199,0.117611 1.339207,0.191093 1.460949,0.220496 1.430478,0.264628 2.632683,0.397316 3.60662,0.397316 2.069624,0 4.017114,-0.543966 5.843257,-1.63188 0.720269,-0.43347 1.412272,-0.942382 2.077575,-1.521892 l -0.342635,2.09497 c 3.469668,0.705672 6.939469,1.058802 10.409136,1.058802 2.343543,0 4.458481,-0.441412 6.345492,-1.323503 1.339169,0.411644 2.572016,0.617812 3.69813,0.617812 0.456537,0 1.080348,-0.05921 1.871673,-0.176818 2.383775,-0.422982 4.514005,-1.693621 6.392338,-3.806841 0.388021,1.015769 0.965419,1.873576 1.73386,2.572277 1.582661,1.411343 3.834928,2.117073 6.756756,2.117073 2.2218,0 4.245899,-0.456213 6.072041,-1.367705 1.278294,0.382239 2.541229,0.573602 3.789099,0.573602 0.88264,0 1.62847,-0.07348 2.23719,-0.220495 1.49135,-0.323432 2.81556,-0.940879 3.97212,-1.85237 0.39417,-0.302689 0.77906,-0.639254 1.15645,-1.003547 0.52878,2.576611 2.48273,3.870515 5.87377,3.870515 1.58265,0 3.11973,-0.27965 4.61107,-0.838307 1.49135,-0.588063 2.84568,-1.367269 4.06311,-2.337569 0.27391,1.087915 0.76092,1.896725 1.46095,2.42598 0.73046,0.499849 1.71979,0.749896 2.96765,0.749896 2.65584,0 5.18816,-1.086338 7.5989,-3.246917 l -0.43142,2.629105 h 7.48723 l 1.18697,-7.409494 c 0.76088,-0.147015 1.36937,-0.293976 1.82591,-0.440991 0.45653,2.64627 1.30907,4.719054 2.55693,6.218608 1.24786,1.499555 2.92175,2.249689 5.02181,2.249689 1.88701,0 3.60632,-0.529691 5.15854,-1.5882 0.88016,-0.588673 1.77015,-1.356495 2.66915,-2.290733 0.20827,1.088248 0.62411,1.943797 1.25722,2.55543 0.97394,0.882091 2.48038,1.323503 4.51958,1.323503 4.26099,0 8.00493,-2.146789 11.23112,-6.439634 l -2.00894,-2.249158 c -0.70002,1.058508 -1.53725,1.911199 -2.51118,2.558065 -0.94351,0.617463 -1.91698,0.940988 -2.92136,0.970391 -0.73045,0 -1.2481,-0.161764 -1.55247,-0.485192 -0.30435,-0.352841 -0.45647,-0.941211 -0.45647,-1.764495 0,-0.67627 0.0607,-1.381472 0.18249,-2.116548 l 1.87166,-11.246857 -7.53244,0.573079 -1.92886,11.527344 c -0.96962,1.373121 -1.87916,2.324018 -2.72799,2.851183 -0.85219,0.499849 -1.73483,0.749369 -2.64791,0.749369 -2.03918,0 -3.36286,-2.072782 -3.97158,-6.21861 2.92183,-1.999406 5.26494,-4.96928 7.03021,-8.909286 h -7.5782 c -0.63915,1.470151 -1.56774,2.83773 -2.78517,4.102061 -1.21743,1.234926 -2.48038,2.102418 -3.7891,2.602269 l 3.05862,-18.6121479 -7.57819,0.6172825 -3.74281,22.8026174 -4.9e-4,-5.29e-4 c -0.63914,0.999704 -1.41563,1.837593 -2.32869,2.51386 -0.91307,0.676272 -1.76507,1.014598 -2.55639,1.014598 -0.88263,0 -1.32423,-0.529166 -1.32423,-1.587673 0,-0.176419 0.0306,-0.470866 0.0915,-0.88251 l 2.14567,-13.14291 -7.53299,0.573079 -2.14566,12.967143 c -0.60871,0.499851 -1.30859,0.925933 -2.09992,1.278767 -0.79132,0.352842 -1.53716,0.529404 -2.23717,0.529404 -0.66959,0 -1.17138,-0.146961 -1.50618,-0.440992 -0.33478,-0.294031 -0.50223,-0.764518 -0.50223,-1.411384 0,-0.176418 0.0301,-0.470339 0.091,-0.881982 l 2.10046,-12.614035 -7.53299,0.573079 -1.92397,11.555761 -0.0392,-0.0442 c -0.82178,1.205525 -1.65898,2.146494 -2.51119,2.822766 -0.82175,0.676268 -1.73449,1.131951 -2.73887,1.367176 -0.30435,0.08821 -0.62392,0.132089 -0.95871,0.132089 -0.33479,0 -0.66968,-0.04387 -1.00448,-0.132089 1.76527,-2.117016 2.64791,-4.718963 2.64791,-7.806281 0,-2.705079 -0.79125,-4.778386 -2.37391,-6.219135 -1.58266,-1.470152 -3.865572,-2.204955 -6.848266,-2.204955 -2.495723,0 -4.702046,0.529163 -6.619485,1.587673 -1.917449,1.058509 -3.409122,2.528645 -4.474371,4.410439 -1.015175,1.793343 -1.540696,3.829874 -1.588409,6.103888 l -0.05502,-0.06157 c -1.400038,2.175824 -3.013185,3.513801 -4.839327,4.013653 -0.547844,0.176418 -1.125691,0.2647 -1.734404,0.2647 -0.334788,0 -0.593618,-0.01479 -0.776231,-0.04421 0.943506,-1.176122 1.658698,-2.572778 2.145668,-4.189944 0.517401,-1.617166 0.776236,-3.381224 0.776236,-5.292421 0,-2.293437 -0.502332,-3.998815 -1.506717,-5.116131 -1.004375,-1.146718 -2.450078,-1.720287 -4.33709,-1.720287 -2.465288,0 -4.991713,0.99965 -7.578743,2.999057 z M 168.9667,2.8412573 c -1.33916,0 -2.44998,0.4118062 -3.33262,1.2350911 -0.88263,0.7938821 -1.32422,1.8083337 -1.32422,3.0432615 0,1.0879123 0.38031,1.9844792 1.1412,2.6901524 0.79133,0.6762697 1.79598,1.0145957 3.01341,1.0145957 1.30873,0 2.37359,-0.397005 3.19535,-1.1908874 0.85221,-0.7938824 1.27847,-1.8083332 1.27847,-3.0432604 0,-1.1173159 -0.36497,-2.0144093 -1.09544,-2.6906793 C 171.11239,3.1938584 170.1537,2.8412573 168.9667,2.8412573 Z M 25.837179,3.061753 17.619471,3.6790355 1.7778045,33.229134 H 9.994968 l 3.195896,-6.086519 h 8.674188 l 0.63896,6.086519 h 8.21771 z m -5.341564,9.173987 h 0.136725 l 0.273996,5.557122 0.502236,4.013126 h -5.524047 l 2.008943,-3.704748 z m 48.581217,6.262813 c 0.791324,0 1.36972,0.249518 1.73495,0.749369 0.365226,0.499853 0.54745,1.279061 0.54745,2.33757 l -0.04524,0.838305 c -0.152175,1.9406 -0.66983,3.425537 -1.552461,4.454642 -0.882637,1.029107 -2.024094,1.558273 -3.424141,1.587676 -0.973939,0 -1.886664,-0.117885 -2.738868,-0.353109 l 1.277921,-7.674196 c 1.673961,-1.293734 3.074253,-1.940257 4.200367,-1.940257 z m 26.479043,0.04368 c 1.552218,0 2.328145,1.044054 2.328145,3.13167 0,1.911197 -0.441043,3.513492 -1.323675,4.807227 -0.8522,1.293733 -1.932922,1.940782 -3.241659,1.940782 -0.791324,0 -1.385037,-0.250043 -1.780701,-0.749898 -0.395662,-0.499849 -0.593199,-1.279057 -0.593199,-2.337568 0.03043,-1.911197 0.471476,-3.513492 1.323681,-4.807227 0.882631,-1.323135 1.978676,-1.984986 3.287408,-1.984986 z"
     sodipodi:nodetypes="ccccscsccccccccccccsscscccscscccscscccscccscccccsscccscccccscccccscccccccccsssccccsssscccccccscscssscccsccscsccscscscscsccccccccccccccccssccscccssscssccs" />
</svg>
